<svg width="921" height="920" viewBox="0 0 921 920" fill="none" xmlns="http://www.w3.org/2000/svg">
<path d="M423 1.46576C322.3 10.2657 232.9 47.9657 157.2 113.766C58.2001 199.766 -0.0998716 327.766 0.000128436 458.966C0.100128 595.166 58.5001 721.766 161.9 810.266C233 870.966 321.7 908.566 416 917.966C434.1 919.766 472.3 920.366 489 919.066C547.4 914.666 596.2 902.666 647 880.266C732.2 842.566 806 777.266 854.2 696.966C917.4 591.666 936.1 465.366 905.9 347.066C863.4 180.166 732.6 51.6657 564.8 12.0657C520.3 1.56573 467.7 -2.43427 423 1.46576ZM462 326.466L328.5 459.966L462 593.466L595.5 726.966L575.5 746.966C564.5 757.966 555.1 766.966 554.5 766.966C554 766.966 484.4 697.866 400 613.466L246.5 459.966L400.5 305.966L554.5 151.966L575 172.466L595.5 192.966L462 326.466Z" fill="#5CDB95"/>
</svg>
