<?xml version="1.0" standalone="no"?>
<!DOCTYPE svg PUBLIC "-//W3C//DTD SVG 20010904//EN"
 "http://www.w3.org/TR/2001/REC-SVG-20010904/DTD/svg10.dtd">
<svg version="1.0" xmlns="http://www.w3.org/2000/svg"
 width="320.000000pt" height="320.000000pt" viewBox="0 0 320.000000 320.000000"
 preserveAspectRatio="xMidYMid meet">

<g transform="translate(0.000000,320.000000) scale(0.100000,-0.100000)"
fill="#000000" stroke="none">
<path d="M1710 2818 c-16 -29 -32 -73 -36 -97 -19 -126 77 -290 217 -370 84
-48 151 -64 269 -65 134 -1 191 17 263 84 l52 49 -55 -21 c-77 -29 -207 -35
-288 -14 -106 27 -190 74 -268 151 -87 86 -116 150 -116 263 0 39 -2 72 -4 72
-2 0 -17 -24 -34 -52z"/>
<path d="M1287 2731 c-61 -80 -90 -155 -95 -246 -5 -100 9 -172 52 -261 66
-136 195 -260 350 -334 126 -59 198 -75 361 -75 157 0 243 18 365 78 69 33
189 144 223 205 l19 33 -54 -41 c-122 -93 -249 -134 -418 -134 -130 0 -221 21
-346 78 -314 145 -462 374 -426 657 6 46 9 85 8 86 -1 2 -19 -19 -39 -46z"/>
<path d="M768 2570 c-109 -120 -154 -250 -145 -420 12 -247 139 -469 368 -646
170 -131 354 -201 590 -225 312 -32 611 64 803 256 50 49 116 135 116 150 0 3
-19 -9 -43 -28 -98 -80 -261 -145 -416 -168 -118 -17 -332 -6 -439 21 -325 84
-630 316 -742 563 -58 130 -77 323 -46 482 8 39 13 71 11 73 -1 2 -27 -24 -57
-58z"/>
<path d="M825 1056 c-64 -20 -99 -42 -139 -87 -56 -61 -79 -120 -83 -214 -5
-98 13 -138 77 -172 41 -22 54 -23 241 -23 l197 0 16 47 c9 26 16 48 16 50 0
2 -13 3 -30 3 -36 0 -36 4 -9 67 58 134 56 212 -6 276 -59 61 -182 84 -280 53z
m148 -108 c9 -5 24 -20 33 -33 19 -29 17 -47 -22 -172 l-27 -85 -87 4 c-117 4
-134 18 -127 100 6 69 47 162 78 179 54 29 106 31 152 7z"/>
<path d="M2711 900 c-52 -66 -97 -120 -101 -120 -4 0 -11 11 -14 25 -6 24 -10
25 -75 25 l-69 0 25 -77 c24 -76 27 -135 9 -175 -7 -16 -1 -18 58 -18 l66 0
29 59 c31 61 85 130 214 277 113 128 113 124 25 124 l-73 0 -94 -120z"/>
<path d="M1833 956 c-97 -32 -138 -79 -168 -191 -23 -91 -20 -129 14 -167 l29
-33 161 -3 160 -3 11 41 c6 23 10 43 8 45 -2 1 -57 5 -123 9 -122 7 -145 15
-145 47 0 18 10 19 148 19 l149 0 11 51 c7 28 12 62 12 75 0 39 -27 82 -63
100 -42 22 -151 28 -204 10z m121 -102 c36 -35 21 -44 -71 -44 l-88 1 33 29
c37 34 99 41 126 14z"/>
<path d="M446 933 c-4 -16 -9 -36 -12 -45 -5 -16 2 -18 60 -18 l65 0 10 38 c6
20 11 40 11 45 0 4 -29 7 -64 7 -61 0 -64 -1 -70 -27z"/>
<path d="M1256 952 c-12 -20 -56 -235 -56 -277 0 -99 30 -115 219 -115 l139 0
46 193 c25 105 46 196 46 200 0 4 -26 7 -57 5 l-58 -3 -31 -120 c-17 -66 -34
-132 -38 -147 -6 -27 -9 -28 -71 -28 l-65 0 0 53 c0 28 9 86 20 127 31 118 30
120 -34 120 -30 0 -57 -4 -60 -8z"/>
<path d="M2156 770 c-25 -104 -46 -194 -46 -200 0 -6 25 -10 59 -10 l59 0 27
113 c14 61 30 129 36 150 l10 37 140 0 139 0 -6 28 c-3 15 -17 37 -31 50 -23
21 -32 22 -183 22 l-158 0 -46 -190z"/>
<path d="M419 818 c-5 -10 -21 -67 -34 -127 -31 -142 -55 -191 -94 -191 -34 0
-45 -12 -59 -62 -12 -43 -12 -43 92 -39 63 2 95 18 119 59 18 30 87 265 102
344 l6 33 -61 0 c-49 0 -64 -4 -71 -17z"/>
</g>
</svg>
