<svg width="612" height="611" viewBox="0 0 612 611" fill="none" xmlns="http://www.w3.org/2000/svg">
<path d="M280.4 0.567276C164.4 10.2673 63.4 85.2673 21 193.067C5.8 231.567 0 262.867 0 305.567C0 346.467 5 375.167 18.5 411.567C49.9 495.867 115 560.967 199.3 592.367C235.7 605.867 264.5 610.967 305.3 610.967C339.1 610.967 362.1 607.767 391.5 599.067C529.1 558.367 620.4 427.267 610.4 285.067C608.4 256.367 604.4 235.867 595.8 210.067C558.5 97.9673 460.2 16.6673 344.2 2.06728C329.2 0.167276 294.7 -0.632724 280.4 0.567276ZM458.2 181.067C462.8 183.367 463.4 186.367 463.1 205.467L462.8 222.867L460 223.867C458.5 224.367 423.7 244.467 382.7 268.667L308.1 312.567L241.9 274.967C205.6 254.167 170.5 234.267 164.1 230.667L152.4 224.067L152.3 205.867C152.3 195.867 152.7 186.567 153.3 185.167C155.5 179.367 146.4 179.667 307.6 179.567C434.9 179.567 455.8 179.767 458.2 181.067ZM462.8 325.567V397.067H460.7C459.1 397.067 446.8 384.367 416.4 351.567C393.2 326.567 374.4 305.467 374.5 304.867C374.9 302.867 458.5 253.467 460.8 253.767C462.8 254.067 462.8 254.867 462.8 325.567ZM157.6 256.667C172.5 264.467 245.3 307.067 245.3 308.067C245.3 310.167 156.4 391.767 154.5 391.367C152.9 391.067 152.8 386.367 152.5 324.567C152.4 287.967 152.5 257.467 152.8 256.767C153.4 255.267 154.8 255.267 157.6 256.667ZM355.1 323.767C401.1 372.567 452.3 428.367 452 429.567C451.8 430.867 434.7 431.067 306 431.367C206.6 431.467 159.6 431.267 158.2 430.567C157.2 429.967 156.3 428.867 156.3 428.167C156.3 426.967 268.1 322.467 270.2 321.767C270.8 321.567 278.6 325.567 287.5 330.667C296.6 335.767 305.3 339.967 307.3 340.267C310.3 340.667 313.3 339.167 329.8 329.667C340.3 323.567 349.1 318.567 349.5 318.567C349.9 318.567 352.4 320.967 355.1 323.767Z" fill="#84CEEB"/>
</svg>
