<svg width="511" height="511" viewBox="0 0 511 511" fill="none" xmlns="http://www.w3.org/2000/svg">
<path d="M231.5 0.567291C181.8 5.36729 132.5 25.6673 93.9 57.0673C82.5 66.2673 64.5 84.4673 55.5 95.7673C32.6 124.467 13.8 163.267 6 198.067C1.1 219.867 0 230.567 0 255.567C0 280.567 1.1 291.267 6 313.067C13.9 348.567 33.2 387.967 56.9 417.067C66.1 428.467 84.3 446.467 95.6 455.467C124.3 478.367 163.1 497.167 197.9 504.967C219.7 509.867 230.4 510.967 255.4 510.967C280.4 510.967 291.1 509.867 312.9 504.967C339 499.167 373.2 484.567 395.7 469.667C434.6 443.767 464.5 409.767 485 368.067C497.5 342.567 504.6 319.667 509.1 290.567C511.5 274.467 511.5 236.667 509.1 220.567C504.6 191.467 497.5 168.567 485 143.067C471.6 115.867 456.7 95.0673 435.2 73.8673C414.1 52.9673 394.8 39.2673 367.9 26.0673C342.7 13.6673 319.3 6.36729 291.4 2.06729C278.8 0.167291 244.6 -0.632709 231.5 0.567291ZM195 114.167C200.9 118.567 201.7 120.567 202.6 134.267C204.1 158.867 208.5 178.467 217 198.167C222.1 209.967 222.7 215.067 220 220.367C217.9 224.467 214.8 226.567 201 232.967C194.6 235.967 189.4 238.767 189.4 239.067C189.4 239.467 192.7 244.767 196.8 250.967C210.1 270.767 225.6 287.767 243.7 302.267C251 308.167 270.6 321.567 271.9 321.567C272.2 321.567 275.2 315.867 278.5 308.867C284.9 295.267 286.3 293.167 290.7 290.967C295.8 288.267 301.1 288.967 312.8 293.967C332.6 302.467 352.1 306.867 376.7 308.367C390.4 309.267 392.4 310.067 396.8 315.967C398.8 318.667 398.9 319.967 398.9 354.067C398.9 388.167 398.8 389.467 396.8 392.167C392 398.667 390.7 399.067 374.1 398.967C327.7 398.567 276.2 382.367 234.9 355.167C161.7 306.967 116.3 227.967 111.8 140.967C111 125.567 111.5 121.767 115.1 117.467C120 111.667 120.6 111.567 158.1 111.867C190.8 112.067 192.4 112.167 195 114.167Z" fill="#84CEEB"/>
</svg>
