<svg width="512" height="512" viewBox="0 0 512 512" fill="none" xmlns="http://www.w3.org/2000/svg">
<path d="M232.1 0.999908C182.4 5.79991 133.1 26.0999 94.5 57.4999C83.1 66.6999 65.1 84.8999 56.1 96.1999C33.2 124.9 14.4 163.7 6.59998 198.5C1.69998 220.3 0.599976 231 0.599976 256C0.599976 281 1.69998 291.7 6.59998 313.5C14.5 349 33.8 388.4 57.5 417.5C66.7 428.9 84.9 446.9 96.2 455.9C124.9 478.8 163.7 497.6 198.5 505.4C220.3 510.3 231 511.4 256 511.4C281 511.4 291.7 510.3 313.5 505.4C339.6 499.6 373.8 485 396.3 470.1C435.2 444.2 465.1 410.2 485.6 368.5C498.1 343 505.2 320.1 509.7 291C512.1 274.9 512.1 237.1 509.7 221C505.2 191.9 498.1 169 485.6 143.5C472.2 116.3 457.3 95.4999 435.8 74.2999C414.7 53.3999 395.4 39.6999 368.5 26.4999C343.3 14.0999 319.9 6.79991 292 2.49991C279.4 0.599908 245.2 -0.200092 232.1 0.999908ZM195.6 114.6C201.5 119 202.3 121 203.2 134.7C204.7 159.3 209.1 178.9 217.6 198.6C222.7 210.4 223.3 215.5 220.6 220.8C218.5 224.9 215.4 227 201.6 233.4C195.2 236.4 190 239.2 190 239.5C190 239.9 193.3 245.2 197.4 251.4C210.7 271.2 226.2 288.2 244.3 302.7C251.6 308.6 271.2 322 272.5 322C272.8 322 275.8 316.3 279.1 309.3C285.5 295.7 286.9 293.6 291.3 291.4C296.4 288.7 301.7 289.4 313.4 294.4C333.2 302.9 352.7 307.3 377.3 308.8C391 309.7 393 310.5 397.4 316.4C399.4 319.1 399.5 320.4 399.5 354.5C399.5 388.6 399.4 389.9 397.4 392.6C392.6 399.1 391.3 399.5 374.7 399.4C328.3 399 276.8 382.8 235.5 355.6C162.3 307.4 116.9 228.4 112.4 141.4C111.6 126 112.1 122.2 115.7 117.9C120.6 112.1 121.2 112 158.7 112.3C191.4 112.5 193 112.6 195.6 114.6Z" fill="black"/>
</svg>
