<svg width="337" height="465" viewBox="0 0 337 465" fill="none" xmlns="http://www.w3.org/2000/svg">
<path d="M84 1.1C39.7 5.8 4.69999 41.9 0.499993 87.6C-0.600007 98.9 3.29999 105.2 11.5 105.2C19.1 105.2 22.3 100.5 23.3 87.9C26.4 50.1 60.5 20.8 98.5 23.3C119.6 24.7 139.6 35.7 151.4 52.4C160.1 64.6 163.5 73.9 165 88.9C166 99.6 167.7 102.8 173.1 104.6C180.4 107.1 187 102.3 187.8 94.1C189.4 77.3 180.1 51.4 166.3 34.5C152.4 17.4 127.3 3.5 106.9 1.5C93.9 0.299998 92.3 0.299998 84 1.1Z" fill="black"/>
<path d="M89 49.1C77.7 50.5 66.4 56.4 58.6 65.1C52.5 71.8 49.2 78.1 46.9 86.9C45.1 93.9 45 98.8 45 173.1V251.9L38.8 254.9C26.1 261 15.9 272.9 11.9 286.2C10.2 292 9.9 295.9 9.9 311.3C9.8 330.9 10.3 337.5 12.7 351.5C23.9 417.8 67.5 454.1 146.5 463.2C161 464.8 201.8 464.8 214 463.1C241 459.4 265.7 450.8 283.2 438.9C303.4 425.1 320.7 401.9 328.8 377.4C335.7 356.8 337 344.7 337 301.4C337 268.5 336.9 265.8 334.9 259.4C326.8 233 300.4 217.8 274.5 224.6C268.5 226.1 268.5 226.1 267 223.8C260.2 213.4 250.6 205.5 240.3 201.8C232.1 198.9 219.8 198.3 210.9 200.5C207 201.4 203.7 202 203.6 201.8C193.9 187.7 186.7 182.1 172.9 177.9C167.2 176.2 164.2 175.9 157.2 176.2C152.4 176.5 147.8 176.9 147 177.1C145.7 177.5 145.4 171.7 145 131C144.6 90.7 144.3 83.9 142.8 80.4C134.4 59.4 111.9 46.3 89 49.1ZM108.9 74.7C115.1 77.8 120.3 83.9 122 89.8C122.6 92.2 123 117.6 123 161C123 212.2 123.3 228.9 124.2 229.8C126 231.6 129.8 231.2 131 229.1C131.5 228 132 225.8 132 224.2C132 210.9 145.1 198.7 159.4 198.8C170.7 198.9 178.8 203.9 183.9 214.2C186.9 220.1 187 220.7 187 234C187 248.3 187.5 250 191.5 250C194.3 250 196 248.2 196 245.2C196 227.9 218.4 216.1 235.4 224.4C241.3 227.3 244.8 230.8 248.3 237.4C250.1 240.9 250.5 243.7 251 256.4C251.5 270 251.7 271.4 253.6 272.6C256.8 274.8 259.1 272.4 260.1 265.9C261.3 258.2 265.2 253.2 273.1 249.2C288.3 241.4 305.1 247.2 312.2 262.5C314.5 267.4 314.5 268 314.4 303.5C314.4 344.3 313.6 351.4 307.2 370.5C298.2 397.1 279.7 417.6 254.5 428.8C232.8 438.4 212.9 442 181.1 442C120.9 442 79.7 427.7 56.6 398.8C49.1 389.5 45.3 382.7 41.1 371.2C35 354.9 31.4 328.1 32.2 306.2C32.5 295.8 32.9 293.7 35.3 288.7C39.4 280.4 47.5 274.1 56.3 272.5L60 271.8V287.8C60 296.6 60.4 305 61 306.4C62 309.2 65.3 309.9 66.7 307.7C67.1 307.1 67.7 257.9 68 198.5L68.5 90.5L70.7 86.5C78.3 72.4 94.6 67.4 108.9 74.7Z" fill="black"/>
</svg>
