<?xml version="1.0" standalone="no"?>
<!DOCTYPE svg PUBLIC "-//W3C//DTD SVG 20010904//EN"
 "http://www.w3.org/TR/2001/REC-SVG-20010904/DTD/svg10.dtd">
<svg version="1.0" xmlns="http://www.w3.org/2000/svg"
 width="1200.000000pt" height="1693.000000pt" viewBox="0 0 1200.000000 1693.000000"
 preserveAspectRatio="xMidYMid meet">

<g transform="translate(0.000000,1693.000000) scale(0.100000,-0.100000)"
fill="#000000" stroke="none">
<path d="M2820 15790 l0 -1140 910 0 910 0 0 380 0 380 -530 0 -530 0 0 380 0
380 530 0 530 0 0 380 0 380 -910 0 -910 0 0 -1140z"/>
<path d="M5002 16188 l3 -743 528 -3 527 -2 0 -65 0 -65 -530 0 -530 0 0 -345
0 -345 910 0 910 0 0 760 0 760 -530 0 -530 0 0 65 0 65 530 0 530 0 0 330 0
330 -910 0 -910 0 2 -742z"/>
<path d="M7190 16185 l0 -745 525 0 525 0 0 -65 0 -65 -525 0 -525 0 0 -345 0
-345 905 0 905 0 0 760 0 760 -525 0 -525 0 0 65 0 65 525 0 525 0 0 330 0
330 -905 0 -905 0 0 -745z"/>
<path d="M4 13568 c3 -18 249 -2771 547 -6118 298 -3347 542 -6086 543 -6087
1 -1 1102 -308 2448 -681 l2447 -680 2453 680 c1349 374 2454 681 2454 682 1
0 245 2737 543 6081 298 3344 544 6097 547 6118 l6 37 -5997 0 -5996 0 5 -32z
m9746 -2490 c0 -22 -71 -821 -489 -5502 -104 -1165 -193 -2122 -198 -2126 -11
-10 -3047 -850 -3071 -850 -19 0 -3070 844 -3077 852 -2 2 -49 514 -104 1138
-56 624 -103 1154 -107 1178 l-5 42 755 0 c416 0 756 -1 757 -2 0 -2 24 -270
54 -596 29 -327 55 -595 57 -597 2 -2 377 -105 835 -228 l831 -225 833 225
c459 124 836 227 838 228 4 5 170 1857 171 1908 l0 37 -2600 0 -2600 0 0 25
c0 14 -29 351 -65 748 -36 397 -65 723 -65 725 0 1 1231 2 2735 2 l2735 0 0
25 c0 13 29 353 65 753 36 401 65 737 65 746 0 15 -221 16 -2867 18 l-2868 3
-61 680 c-34 374 -65 710 -69 748 l-6 67 3760 0 3761 0 0 -22z"/>
</g>
</svg>
