<svg width="546" height="768" viewBox="0 0 546 768" fill="none" xmlns="http://www.w3.org/2000/svg">
<path d="M52 52V104H69H86V86.5V69H102H118V86.5V104H135H152V52V0H135H118V17V34H102H86V17V0H69H52V52Z" fill="black"/>
<path d="M168 17V34H183H198V69V104L215.3 103.8L232.5 103.5L232.8 68.7L233 34H248H263V17V0H215.5H168V17Z" fill="black"/>
<path d="M278.2 51.7L278.5 103.5L295.2 103.8L312 104L312.2 78.4L312.5 52.7L323.9 70.4C330.1 80.1 335.6 88.2 336 88.5C336.4 88.7 341.8 81 348.1 71.2L359.5 53.5L360 78.5L360.5 103.5H377.5H394.5L394.8 51.7L395 0H376.8L358.5 0.0999985L348.6 16.6C343.1 25.7 338.1 33.8 337.5 34.7C336.6 35.9 334.4 32.8 325.5 18.1L314.5 0H296.2H278L278.2 51.7Z" fill="black"/>
<path d="M412 52V104H453.5H495V86.5V69H471H447V34.5V0H429.5H412V52Z" fill="black"/>
<path d="M1.39999 156.7C1.79999 159.9 12.8 283.8 26 432C39.2 580.2 50.1 702.6 50.2 703.9C50.5 706.2 54.6 707.5 161.5 737.2L272.5 768L347 747.4C466.7 714.3 494.9 706.4 495.3 705.9C495.5 705.7 506.6 582.7 519.9 432.5C533.3 282.3 544.4 157.6 544.7 155.2L545.3 151H273H0.799988L1.39999 156.7ZM443 266.6C443 270.1 438.1 325.6 437.4 329.7L436.9 333H307H177V335.2C177 338.4 181.9 394.8 182.6 398.7L183.1 402H307.2H431.3L430.7 407.2C430.4 410.1 426.2 456.4 421.5 510C416.8 563.6 412.7 608.4 412.5 609.5C412.1 611.3 403.7 613.9 342.5 630.9L273 650.1L203.7 631C165.7 620.4 134.2 611.5 133.8 611.2C133.2 610.6 124 512.3 124 506.7C124 505.1 126.3 505 158 505C176.7 505 192 505.3 192 505.7C192.1 510.5 196.9 558.2 197.3 558.6C197.9 559.2 271 579 272.7 579C273.9 579 348.3 559.1 348.6 558.7C348.7 558.6 350.4 539.8 352.4 517C354.4 494.2 356.2 474.4 356.3 473L356.5 470.5L238.5 470L120.5 469.5L111.9 372.5C107.1 319.1 103 273.1 102.8 270.3L102.3 265L187.4 264.7C234.2 264.6 310.9 264.4 357.8 264.2L443 264V266.6Z" fill="black"/>
</svg>
