<svg width="612" height="612" viewBox="0 0 612 612" fill="none" xmlns="http://www.w3.org/2000/svg">
<path d="M281.1 0.999893C165.1 10.6999 64.1 85.6999 21.7 193.5C6.50001 232 0.700012 263.3 0.700012 306C0.700012 346.9 5.70001 375.6 19.2 412C50.6 496.3 115.7 561.4 200 592.8C236.4 606.3 265.2 611.4 306 611.4C339.8 611.4 362.8 608.2 392.2 599.5C529.8 558.8 621.1 427.7 611.1 285.5C609.1 256.8 605.1 236.3 596.5 210.5C559.2 98.3999 460.9 17.0999 344.9 2.49989C329.9 0.599893 295.4 -0.200107 281.1 0.999893ZM458.9 181.5C463.5 183.8 464.1 186.8 463.8 205.9L463.5 223.3L460.7 224.3C459.2 224.8 424.4 244.9 383.4 269.1L308.8 313L242.6 275.4C206.3 254.6 171.2 234.7 164.8 231.1L153.1 224.5L153 206.3C153 196.3 153.4 187 154 185.6C156.2 179.8 147.1 180.1 308.3 180C435.6 180 456.5 180.2 458.9 181.5ZM463.5 326V397.5H461.4C459.8 397.5 447.5 384.8 417.1 352C393.9 327 375.1 305.9 375.2 305.3C375.6 303.3 459.2 253.9 461.5 254.2C463.5 254.5 463.5 255.3 463.5 326ZM158.3 257.1C173.2 264.9 246 307.5 246 308.5C246 310.6 157.1 392.2 155.2 391.8C153.6 391.5 153.5 386.8 153.2 325C153.1 288.4 153.2 257.9 153.5 257.2C154.1 255.7 155.5 255.7 158.3 257.1ZM355.8 324.2C401.8 373 453 428.8 452.7 430C452.5 431.3 435.4 431.5 306.7 431.8C207.3 431.9 160.3 431.7 158.9 431C157.9 430.4 157 429.3 157 428.6C157 427.4 268.8 322.9 270.9 322.2C271.5 322 279.3 326 288.2 331.1C297.3 336.2 306 340.4 308 340.7C311 341.1 314 339.6 330.5 330.1C341 324 349.8 319 350.2 319C350.6 319 353.1 321.4 355.8 324.2Z" fill="black"/>
</svg>
