<svg width="343" height="624" viewBox="0 0 343 624" fill="none" xmlns="http://www.w3.org/2000/svg">
<path d="M38.3 1.50001C22.1 5.90001 8.20002 18.7 2.40002 34.5C0.60002 39.3 0.50002 49.2 0.20002 309C2.03173e-05 511.3 0.20002 579.9 1.10002 584C4.50002 600.3 16.9 614.4 33.8 621.2L39.5 623.5L164 623.8C251.1 624 290.1 623.7 293.8 622.9C300.7 621.5 311.6 616 317.3 611C323.2 605.8 328.7 597.4 331.9 588.6L334.5 581.5L334.8 406.6L335 231.7L338 228.4C339.6 226.5 341.4 223.2 342 221C342.7 218.3 343 196.6 342.8 152.7C342.5 83.8 342.7 86.7 337.3 80.8C334.9 78.3 334.8 77.8 334.9 64.7C335.1 49 333.9 40.3 330.4 31.6C325.5 19.3 314 8.20001 300.5 2.90001L294.5 0.500013L169 0.300013C63.3 0.100013 42.7 0.300013 38.3 1.50001ZM205.8 13.2C206.5 13.9 207 15.3 207 16.5C207 20.9 206.5 21 167 21C127.5 21 127 20.9 127 16.5C127 12.1 127.5 12 167 12C194.9 12 204.9 12.3 205.8 13.2ZM306.5 38.3C311.7 41.3 314.7 45.9 315.5 52.3C315.8 55.2 316 167.1 315.8 301C315.5 525.4 315.4 544.7 313.8 547.5C311.6 551.6 308.2 554.6 303.8 556.5C300.5 557.8 284.9 558 167.8 558C79.9 558 34.3 557.6 31.8 557C29.7 556.4 26.7 554.8 25 553.3C18.5 547.9 19 569.4 19 296.8V48.5L21.3 44.5C22.6 42.3 25.3 39.6 27.5 38.3L31.5 36H167H302.5L306.5 38.3ZM176.4 568.1C184.5 570.3 192 580.6 192 589.3C192 606.3 172.7 617.3 158.3 608.4C151.3 604.1 147.5 597.4 147.5 589.6C147.7 574 161.2 563.9 176.4 568.1Z" fill="black"/>
</svg>
