<svg width="900" height="900" viewBox="0 0 900 900" fill="none" xmlns="http://www.w3.org/2000/svg">
<path d="M412.277 0.913818C379.977 3.41382 335.277 12.6138 305.377 22.9138C222.677 51.6138 152.177 101.314 97.6773 169.314C47.0773 232.414 14.5773 308.614 3.47735 389.814C0.877348 409.114 0.777348 410.414 0.177348 440.014C-0.422652 472.114 0.377348 487.314 4.47735 516.814C12.8773 577.914 38.1773 643.914 74.1773 698.314C84.5773 714.114 99.1773 733.314 109.477 744.814C131.777 769.814 146.677 784.114 168.977 801.914C232.477 852.814 307.877 885.214 388.877 896.214C411.277 899.314 428.677 900.114 459.677 899.514C476.577 899.214 492.177 898.714 494.377 898.414C496.577 898.114 502.477 897.314 507.377 896.814C512.377 896.214 519.977 895.014 524.377 894.214C528.777 893.414 535.077 892.314 538.377 891.714C559.677 887.714 591.477 878.414 614.777 869.114C731.977 822.714 822.777 731.914 869.177 614.714C882.377 581.514 892.777 541.114 896.777 507.314C897.377 502.314 898.177 496.514 898.477 494.314C898.777 492.114 899.277 476.514 899.577 459.614C900.177 428.614 899.377 411.214 896.277 388.814C878.777 260.614 807.477 146.814 699.377 74.8138C653.677 44.3138 602.677 22.5138 549.077 10.4138C537.577 7.81384 523.177 5.11383 515.677 4.21381C513.277 4.01379 510.377 3.51385 509.277 3.31384C495.477 0.413818 437.477 -1.08618 412.277 0.913818ZM690.477 234.314C699.677 237.014 706.777 246.514 706.877 256.214C706.877 258.914 693.577 324.914 677.277 402.714C661.077 480.614 644.677 559.114 640.877 577.314C623.477 660.614 625.377 653.314 618.877 659.614C612.177 666.214 602.577 668.414 593.977 665.314C591.677 664.514 562.777 644.014 527.577 618.214L465.377 572.514L432.877 605.714C410.177 628.814 399.277 639.314 396.677 640.314C392.477 642.014 383.377 642.414 384.377 640.814C384.677 640.314 386.077 623.514 387.377 603.614C388.677 583.614 390.077 564.414 390.277 560.814C390.577 557.214 391.277 546.414 391.977 536.814C392.777 523.914 393.577 518.614 394.777 516.714C395.677 515.214 445.877 470.314 506.377 416.914C566.877 363.414 616.777 318.614 617.277 317.314C618.577 314.014 615.777 309.814 612.277 309.814C610.677 309.814 562.877 338.914 478.677 391.014C355.877 467.214 347.477 472.514 345.877 476.214C344.877 478.314 344.277 481.314 344.577 482.714C344.777 484.114 352.877 519.914 362.477 562.214C372.077 604.514 379.677 639.314 379.377 639.614C379.077 639.914 376.977 638.214 374.577 635.714C370.577 631.514 369.977 629.914 362.677 606.814C345.177 550.514 324.877 486.414 324.477 486.114C324.277 485.814 296.677 477.614 263.177 467.714C229.777 457.814 201.277 448.914 199.977 448.014C195.577 444.814 193.577 441.114 193.077 435.414C192.577 429.514 194.977 423.814 199.277 420.714C200.477 419.814 214.277 414.114 229.877 408.014C245.577 401.914 280.477 388.314 307.377 377.814C334.377 367.314 399.777 341.814 452.877 321.114C505.977 300.414 575.277 273.414 606.877 261.114C687.577 229.514 681.277 231.614 690.477 234.314Z" fill="#5CDB95"/>
</svg>
