<svg width="898" height="899" viewBox="0 0 898 899" fill="none" xmlns="http://www.w3.org/2000/svg">
<path d="M410.3 -0.299561C378 2.20044 333.3 11.4004 303.4 21.7004C220.7 50.4004 150.2 100.1 95.7 168.1C45.1 231.2 12.6 307.4 1.50001 388.6C-1.09999 407.9 -1.19999 409.2 -1.79999 438.8C-2.39999 470.9 -1.59999 486.1 2.50001 515.6C10.9 576.7 36.2 642.7 72.2 697.1C82.6 712.9 97.2 732.1 107.5 743.6C129.8 768.6 144.7 782.9 167 800.7C230.5 851.6 305.9 884 386.9 895C409.3 898.1 426.7 898.9 457.7 898.3C474.6 898 490.2 897.5 492.4 897.2C494.6 896.9 500.5 896.1 505.4 895.6C510.4 895 518 893.8 522.4 893C526.8 892.2 533.1 891.1 536.4 890.5C557.7 886.5 589.5 877.2 612.8 867.9C730 821.5 820.8 730.7 867.2 613.5C880.4 580.3 890.8 539.9 894.8 506.1C895.4 501.1 896.2 495.3 896.5 493.1C896.8 490.9 897.3 475.3 897.6 458.4C898.2 427.4 897.4 410 894.3 387.6C876.8 259.4 805.5 145.6 697.4 73.6005C651.7 43.1005 600.7 21.3004 547.1 9.20044C535.6 6.60044 521.2 3.90043 513.7 3.00043C511.3 2.80043 508.4 2.30046 507.3 2.10046C493.5 -0.799536 435.5 -2.29956 410.3 -0.299561ZM688.5 233.1C697.7 235.8 704.8 245.3 704.9 255C704.9 257.7 691.6 323.7 675.3 401.5C659.1 479.4 642.7 557.9 638.9 576.1C621.5 659.4 623.4 652.1 616.9 658.4C610.2 665 600.6 667.2 592 664.1C589.7 663.3 560.8 642.8 525.6 617L463.4 571.3L430.9 604.5C408.2 627.6 397.3 638.1 394.7 639.1C390.5 640.8 381.4 641.2 382.4 639.6C382.7 639.1 384.1 622.3 385.4 602.4C386.7 582.4 388.1 563.2 388.3 559.6C388.6 556 389.3 545.2 390 535.6C390.8 522.7 391.6 517.4 392.8 515.5C393.7 514 443.9 469.1 504.4 415.7C564.9 362.2 614.8 317.4 615.3 316.1C616.6 312.8 613.8 308.6 610.3 308.6C608.7 308.6 560.9 337.7 476.7 389.8C353.9 466 345.5 471.3 343.9 475C342.9 477.1 342.3 480.1 342.6 481.5C342.8 482.9 350.9 518.7 360.5 561C370.1 603.3 377.7 638.1 377.4 638.4C377.1 638.7 375 637 372.6 634.5C368.6 630.3 368 628.7 360.7 605.6C343.2 549.3 322.9 485.2 322.5 484.9C322.3 484.6 294.7 476.4 261.2 466.5C227.8 456.6 199.3 447.7 198 446.8C193.6 443.6 191.6 439.9 191.1 434.2C190.6 428.3 193 422.6 197.3 419.5C198.5 418.6 212.3 412.9 227.9 406.8C243.6 400.7 278.5 387.1 305.4 376.6C332.4 366.1 397.8 340.6 450.9 319.9C504 299.2 573.3 272.2 604.9 259.9C685.6 228.3 679.3 230.4 688.5 233.1Z" fill="black"/>
</svg>
